{"title":"Ghost Rider Spirit Of Vengeance 2012 KorSub HDRiP XviD - iLLUSiO","uid":7131881,"size":1753046985,"categoryP":"video","categoryS":"movies","magnet":"?xt=urn:btih:8307a7d6659c0a0c865c26b8afe06b05b08ce6a8&amp;dn=Ghost+Rider+Spirit+Of+Vengeance+2012+KorSub+HDRiP+XviD+-+iLLUSiO&amp;tr=udp%3A%2F%2Ftracker.openbittorrent.com%3A80&amp;tr=udp%3A%2F%2Fopen.demonii.com%3A1337&amp;tr=udp%3A%2F%2Ftracker.coppersurfer.tk%3A6969&amp;tr=udp%3A%2F%2Fexodus.desync.com%3A6969","seeders":0,"leechers":0,"uploader":".BONE.","files":4,"time":1332733739,"description":"Movie Info\nPlot: As Johnny Blaze hides out in Eastern Europe,\nhe is called upon to stop the devil, who is trying to take human form. &lt;a href=&quot;\nhttp://www.imdb.com/title/tt1071875/&quot; rel=&quot;nofollow&quot; target=&quot;_NEW&quot;&gt;\nhttp://www.imdb.com/title/tt1071875/&lt;/a&gt;\nIMDB Rating: 5.0\n\n\n\nGeneral Info\nSize: 1.62GB\nFormat: AVI\nRuntime: 01:35:27\n\n\n\nSources\nVideo - Ghost Rider Spirit Of Vengeance 2012 KORSUB HDRip H264 AAC-KTH\nAudio - Ghost Rider Spirit Of Vengeance 2012 KORSUB HDRip H264 AAC-KTH\n(Thanks)\n\n\n\nVideo Info\nID : 0\nFormat : MPEG-4 Visual\nFormat profile : Advanced Simple@L5\nFormat settings, BVOP : 2\nFormat settings, QPel : No\nFormat settings, GMC : No warppoints\nFormat settings, Matrix : Default (H.263)\nMuxing mode : Packed bitstream\nCodec ID : XVID\nCodec ID/Hint : XviD\nDuration : 1h 35mn\nBit rate : 2 267 Kbps\nWidth : 720 pixels\nHeight : 304 pixels\nDisplay aspect ratio : 2.35:1\nFrame rate : 24.000 fps\nColor space : YUV\nChroma subsampling : 4:2:0\nBit depth : 8 bits\nScan type : Progressive\nCompression mode : Lossy\nBits/(Pixel*Frame) : 0.431\nStream size : 1.51 GiB (93%)\nWriting library : XviD 64\n\n\nAudio Info\nID : 1\nFormat : MPEG Audio\nFormat version : Version 1\nFormat profile : Layer 3\nMode : Joint stereo\nMode extension : MS Stereo\nCodec ID : 55\nCodec ID/Hint : MP3\nDuration : 1h 35mn\nBit rate mode : Constant\nBit rate : 160 Kbps\nChannel(s) : 2 channels\nSampling rate : 44.1 KHz\nCompression mode : Lossy\nDelay relative to video : 6ms\nStream size : 109 MiB (7%)\nAlignment : Split accross interleaves\nInterleave, duration : 42 ms (1.00 video frame)\nInterleave, preload duration : 500 ms\nWriting library : LAME3.98.4\n\n\n\nEncoders Notes\nI cropped the black borders (not the actual video lol)\nsharpen, re-sized, de-noised\nchanged the: contrast, brightness, saturation, gamma &amp; colors.\nSample included, enjoy..\n &lt;a href=&quot;\nhttp://imgr.us/images/lkjcdugfzrwo6urunwh.png&quot; rel=&quot;nofollow&quot; target=&quot;_NEW&quot;&gt;\nhttp://imgr.us/images/lkjcdugfzrwo6urunwh.png&lt;/a&gt; &lt;a href=&quot;\nhttp://imgr.us/images/8260fo0hivwyexvbh491.png&quot; rel=&quot;nofollow&quot; target=&quot;_NEW&quot;&gt;\nhttp://imgr.us/images/8260fo0hivwyexvbh491.png&lt;/a&gt; &lt;a href=&quot;\nhttp://imgr.us/images/pbga71ubxyuioxirdq.png&quot; rel=&quot;nofollow&quot; target=&quot;_NEW&quot;&gt;\nhttp://imgr.us/images/pbga71ubxyuioxirdq.png&lt;/a&gt; &lt;a href=&quot;\nhttp://imgr.us/images/4j2b61mmzvaodj1vwu.png&quot; rel=&quot;nofollow&quot; target=&quot;_NEW&quot;&gt;\nhttp://imgr.us/images/4j2b61mmzvaodj1vwu.png&lt;/a&gt; &lt;a href=&quot;\nhttp://imgr.us/images/brz40pz2v6f8zv8ej7d4.png&quot; rel=&quot;nofollow&quot; target=&quot;_NEW&quot;&gt;\nhttp://imgr.us/images/brz40pz2v6f8zv8ej7d4.png&lt;/a&gt;","torrent":{"xt":"urn:btih:8307a7d6659c0a0c865c26b8afe06b05b08ce6a8","amp;dn":"Ghost+Rider+Spirit+Of+Vengeance+2012+KorSub+HDRiP+XviD+-+iLLUSiO","amp;tr":["udp%3A%2F%2Ftracker.openbittorrent.com%3A80","udp%3A%2F%2Fopen.demonii.com%3A1337","udp%3A%2F%2Ftracker.coppersurfer.tk%3A6969","udp%3A%2F%2Fexodus.desync.com%3A6969"],"infoHash":"8307a7d6659c0a0c865c26b8afe06b05b08ce6a8","infoHashBuffer":{"type":"Buffer","data":[131,7,167,214,101,156,10,12,134,92,38,184,175,224,107,5,176,140,230,168]},"announce":[],"urlList":[]}}